<?xml version="1.0" ?><svg data-name="Layer 1" id="Layer_1" viewBox="0 0 64 64" xmlns="http://www.w3.org/2000/svg"><defs><style>.cls-1{fill:#ffffff;}</style></defs><title/><path class="cls-1" d="M18,6.5A1.5,1.5,0,1,0,16.5,5,1.5,1.5,0,0,0,18,6.5Zm0-2a.5.5,0,1,1-.5.5A.5.5,0,0,1,18,4.5Z"/><circle class="cls-1" cx="22" cy="5" r="1"/><circle class="cls-1" cx="14" cy="5" r="1"/><path class="cls-1" d="M62,17H35V5a5,5,0,0,0-5-5H6A5,5,0,0,0,1,5V9a1,1,0,0,0-1,1v4a1,1,0,0,0,1,1v2a1,1,0,0,0-1,1v4a1,1,0,0,0,1,1V59a5,5,0,0,0,5,5H30a5,5,0,0,0,5-5V51.9L47.23,48a19.4,19.4,0,0,1,6-1H62a2,2,0,0,0,2-2V19A2,2,0,0,0,62,17ZM47.4,32.76,62,21.08v22ZM24,21.08,38.6,32.76,24,43.07ZM24.6,19H61.4L43.29,33.49a.48.48,0,0,1-.58,0ZM6,2H30a3,3,0,0,1,3,2.5H30a4.34,4.34,0,0,0-3.35,1.65A3.45,3.45,0,0,1,24,7.5H12A3.45,3.45,0,0,1,9.35,6.15,4.34,4.34,0,0,0,6,4.5H3.05A3,3,0,0,1,6,2ZM33,59a3,3,0,0,1-3,3H6a3,3,0,0,1-3-3V5.5H6A3.45,3.45,0,0,1,8.65,6.85,4.34,4.34,0,0,0,12,8.5H24a4.34,4.34,0,0,0,3.35-1.65A3.45,3.45,0,0,1,30,5.5h3V17H24a2,2,0,0,0-2,2V45a2,2,0,0,0,2,2h6a.11.11,0,0,1,.12.09s0,.08,0,.1a.08.08,0,0,1-.05.05L15.48,56.15a1,1,0,0,0-.39,1.27,1.05,1.05,0,0,0,.2.27.2.2,0,0,0,.07.06.59.59,0,0,0,.19.13l.1,0a.86.86,0,0,0,.23,0L16,58h0a1.12,1.12,0,0,0,.31,0L33,52.55ZM46.61,46,33.69,50.22h0l-6,1.94-4,1.29L31.1,49A2.13,2.13,0,0,0,30.34,45,2.07,2.07,0,0,0,30,45H24.73l15.5-10.94,1.23,1a2.47,2.47,0,0,0,3.08,0l1.23-1L61.27,45h-8A21.6,21.6,0,0,0,46.61,46Z"/></svg>