<?xml version="1.0" ?><!DOCTYPE svg  PUBLIC '-//W3C//DTD SVG 1.1//EN'  'http://www.w3.org/Graphics/SVG/1.1/DTD/svg11.dtd'><svg enable-background="new 0 0 32 32" height="32px" id="Layer_1" version="1.1" viewBox="0 0 32 32" width="32px" xml:space="preserve" xmlns="http://www.w3.org/2000/svg" xmlns:xlink="http://www.w3.org/1999/xlink"><g id="ruble_x2C__currency_x2C__money"><g><g id="purse_6_"><g><g><path d="M1.5,9C1.224,9,1,8.776,1,8.5S1.224,8,1.5,8c14.384,0,23.066,0,25.584-3.777       c0.123-0.184,0.351-0.266,0.561-0.201C27.855,4.085,28,4.279,28,4.5V7c0,0.276-0.224,0.5-0.5,0.5S27,7.276,27,7V5.826       C23.441,9,14.882,9,1.5,9z" fill="#ffffff"/></g></g><g><g><g><path d="M13.979,11.058c-1.78,0-3.686-0.014-5.713-0.027C6.113,11.016,3.851,11,1.5,11        C1.224,11,1,10.776,1,10.5S1.224,10,1.5,10c2.354,0,4.618,0.016,6.772,0.03c10.592,0.069,18.957,0.13,20.865-1.875        c0.142-0.148,0.359-0.195,0.548-0.119C29.875,8.111,30,8.296,30,8.5v2c0,0.276-0.224,0.5-0.5,0.5S29,10.776,29,10.5V9.492        C26.592,10.83,21.389,11.058,13.979,11.058z" fill="#ffffff"/></g></g></g></g><g><g><g><path d="M1.5,12C1.224,12,1,12.224,1,12.5S1.224,13,1.5,13H30v14H1.5C1.224,27,1,27.224,1,27.5l0,0       C1,27.776,1.224,28,1.5,28h29c0.276,0,0.5-0.224,0.5-0.5v-15c0-0.276-0.224-0.5-0.5-0.5H1.5z" fill="#ffffff"/></g></g><g><g><path d="M1,14.499V27.5C1,27.776,1.224,28,1.5,28l0,0C1.776,28,2,27.776,2,27.5V14.499       c0-0.276-0.224-0.5-0.5-0.5S1,14.223,1,14.499z" fill="#ffffff"/></g></g></g></g><g><g><g><g><g><g><path d="M13.5,21c-0.276,0-0.5-0.224-0.5-0.5s0.224-0.5,0.5-0.5h3c0.827,0,1.5-0.673,1.5-1.5         S17.327,17,16.5,17H14v-0.5c0-0.276,0.224-0.5,0.5-0.5h2c1.379,0,2.5,1.123,2.5,2.5c0,1.378-1.121,2.5-2.5,2.5H13.5z" fill="white"/></g></g></g></g></g></g><g><g><path d="M14.5,25c-0.276,0-0.5-0.224-0.5-0.5V17c0-0.276,0.224-0.5,0.5-0.5S15,16.724,15,17v7.5     C15,24.776,14.776,25,14.5,25z" fill="#ffffff"/></g></g><g><g><g><path d="M17.5,23h-4c-0.276,0-0.5-0.224-0.5-0.5s0.224-0.5,0.5-0.5h4c0.276,0,0.5,0.224,0.5,0.5      S17.776,23,17.5,23z" fill="#ffffff"/></g></g></g></g></svg>