<?xml version="1.0" encoding="utf-8"?>
<!-- Generator: Adobe Illustrator 25.4.1, SVG Export Plug-In . SVG Version: 6.00 Build 0)  -->
<svg version="1.1" id="Layer_1" xmlns="http://www.w3.org/2000/svg" xmlns:xlink="http://www.w3.org/1999/xlink" x="0px" y="0px"
	 viewBox="0 0 48 48" style="enable-background:new 0 0 48 48;" xml:space="preserve">
<style type="text/css">
	.st0{fill:none;}
	.st1{stroke:#ffffff;stroke-miterlimit:10;}
	.st2{fill:#ffffff;stroke:#ffffff;stroke-width:0.15;stroke-miterlimit:10;}
	.st3{stroke:#ffffff;stroke-width:0.15;stroke-miterlimit:10;}
</style>
<path class="st0" fill="white" d="M0,0h48v48H0V0z M36.6,12l-5.5,10L36.6,12z"/>
<path class="st1" fill="white" d="M14,36c-2.2,0-4,1.8-4,4s1.8,4,4,4s4-1.8,4-4S16.2,36,14,36z M34,36c-2.2,0-4,1.8-4,4s1.8,4,4,4s4-1.8,4-4
	S36.2,36,34,36z M14.4,29.5c0-0.1,0-0.2,0.1-0.2l1.8-3.3h14.9c1.5,0,2.8-0.8,3.5-2.1l7.7-14L38.8,8l0,0l-2.2,4l-5.5,10h-14l-0.3-0.5
	L12.3,12l-1.9-4L8.5,4H2v4h4l7.2,15.2l-2.7,4.9C10.2,28.6,10,29.3,10,30c0,2.2,1.8,4,4,4h24v-4H14.9C14.6,30,14.4,29.8,14.4,29.5z
	 M-26.1,32.8c-0.6,1-0.2,2.3,0.9,2.8l0,0c1,0.5,2.2,0.2,2.8-0.8l2.7-4.8l0,0l2.5-4.4l0,0l3.7-6.6l-3.7-2l-3.7,6.6l-2.5,4.4l2-3.5
	l-2,3.5L-26.1,32.8z M8.7,4l29.8,3.8"/>
<path class="st1" fill="white" d="M34.3,23.5l-20.7-1.2L7.9,4.5C7.8,4.3,8,4,8.3,4.1l30,4c0.5,0.1,0.8,0.5,0.6,1L34.3,23.5z"/>
<rect fill="white" x="23.8" y="4.6" transform="matrix(0.992 0.1265 -0.1265 0.992 0.9791 -3.301)" class="st1" width="5.3" height="2.9"/>
<rect fill="white" x="24.3" y="4.3" transform="matrix(0.992 0.1265 -0.1265 0.992 0.9457 -3.3635)" class="st1" width="5.3" height="2.9"/>
<line fill="white" class="st2" x1="23.7" y1="3.8" x2="24.1" y2="3.5"/>
<line fill="white" class="st2" x1="29.3" y1="8.3" x2="29.8" y2="8.1"/>
<ellipse fill="white" transform="matrix(0.7908 -0.612 0.612 0.7908 2.7353 15.4733)" class="st2" cx="24" cy="3.7" rx="0.2" ry="0.1"/>
<ellipse fill="white" transform="matrix(0.7908 -0.612 0.612 0.7908 1.1786 19.7194)" class="st2" cx="29.4" cy="8.1" rx="0.2" ry="0.1"/>
<line fill="white" class="st2" x1="23.4" y1="5.9" x2="20.7" y2="3.1"/>
<line fill="white" class="st2" x1="15.7" y1="4.5" x2="20.8" y2="3.1"/>
<rect fill="white" x="16" y="3.8" transform="matrix(0.964 -0.2658 0.2658 0.964 -0.5734 5.1019)" class="st3" width="5" height="1.6"/>
<rect fill="white" x="19.6" y="4.8" transform="matrix(0.7071 0.7071 -0.7071 0.7071 10.466 -13.9587)" class="st3" width="5" height="1.6"/>
<line fill="white" class="st2" x1="38.6" y1="7.4" x2="31.3" y2="5.8"/>
<line fill="white" class="st2" x1="31.3" y1="6.4" x2="31.3" y2="5.8"/>
<rect fill="white" x="31.3" y="6.5" transform="matrix(0.9751 0.222 -0.222 0.9751 2.3469 -7.4024)" class="st3" width="5.5" height="0.4"/>
</svg>
