<?xml version="1.0" ?><svg data-name="Your Icons" id="Your_Icons" viewBox="0 0 48 48" xmlns="http://www.w3.org/2000/svg"><defs><style>.cls-1{fill:#939598;}.cls-2{fill:#00a651;}.cls-3{fill:#fff;}</style></defs><title/><path class="cls-1" d="M37,16H30.87l-4-7.95a1,1,0,1,0-1.78.9L28.63,16H19.37l3.52-7a1,1,0,1,0-1.78-.9l-4,8H11a3,3,0,0,0-3,3v.45A2.55,2.55,0,0,0,10.55,22l1.95,6.13A6,6,0,0,1,22,33a5.86,5.86,0,0,1-.81,3h8.89a4,4,0,0,0,3.81-2.79L37.45,22A2.56,2.56,0,0,0,40,19.45V19A3,3,0,0,0,37,16Zm1,3.45a.53.53,0,0,1-.18.4.5.5,0,0,1-.37.15,2,2,0,0,0-1.91,1.39L32,32.6a2,2,0,0,1-1.9,1.4H23.94A8.26,8.26,0,0,0,24,33a7.82,7.82,0,0,0-.28-2.06A.88.88,0,0,0,24,31a1,1,0,0,0,1-1V24a1,1,0,0,0-2,0v5.14a8,8,0,0,0-3.31-3.23L19,23.68a1,1,0,1,0-1.9.64l.27.8A8.2,8.2,0,0,0,16,25a7.93,7.93,0,0,0-2.29.33l-1.25-3.94A2,2,0,0,0,10.55,20a.55.55,0,0,1-.55-.55V19a1,1,0,0,1,1-1h5.13l-.76,1.52a1.48,1.48,0,0,0-.36.89.11.11,0,0,1,0,.05v0a1.5,1.5,0,1,0,2.62-1L18.37,18H29.63l.75,1.51a1.5,1.5,0,1,0,2.62,1v0a.11.11,0,0,1,0-.05,1.48,1.48,0,0,0-.36-.89L31.87,18H37a1,1,0,0,1,1,1Z"/><path class="cls-1" d="M30.32,23.05a1,1,0,0,0-1.27.63l-2,6A1,1,0,0,0,27.68,31,1.25,1.25,0,0,0,28,31a1,1,0,0,0,.95-.68l2-6A1,1,0,0,0,30.32,23.05Z"/><path class="cls-2" d="M16,25a8,8,0,1,0,8,8A8,8,0,0,0,16,25Z"/><path class="cls-3" d="M18.5,32H17V30.5a1,1,0,0,0-2,0V32H13.5a1,1,0,0,0,0,2H15v1.5a1,1,0,0,0,2,0V34h1.5a1,1,0,0,0,0-2Z"/></svg>