
<svg version="1.1" id="Layer_1" fill="white" xmlns="http://www.w3.org/2000/svg" xmlns:xlink="http://www.w3.org/1999/xlink" x="0px" y="0px"
	 viewBox="0 0 48 48" style="enable-background:new 0 0 48 48;" xml:space="preserve">
<style type="text/css">
	.st0{fill:none;}
</style>
<path class="st0" d="M0,0h48v48H0V0z M36.6,12l-5.5,10L36.6,12z"/>
<path d="M24.7,18.5L24.7,18.5c0.9-0.4,1.3-1.5,0.9-2.3l-2.2-5l0,0l-2-4.4l0,0l-3-6.6l-3.9,1.7l3,6.6l2,4.4l-1.6-3.5l1.6,3.5l2,4.4
	C22,18.5,23.5,19.1,24.7,18.5z M14,36c-2.2,0-4,1.8-4,4s1.8,4,4,4s4-1.8,4-4S16.2,36,14,36z M34,36c-2.2,0-4,1.8-4,4s1.8,4,4,4
	s4-1.8,4-4S36.2,36,34,36z M14.4,29.5c0-0.1,0-0.2,0.1-0.2l1.8-3.3h14.9c1.5,0,2.8-0.8,3.5-2.1l7.7-14L38.8,8h0l-2.2,4l-5.5,10h-14
	l-0.3-0.5L12.3,12l-1.9-4L8.5,4H2v4h4l7.2,15.2l-2.7,4.9C10.2,28.6,10,29.3,10,30c0,2.2,1.8,4,4,4h24v-4H14.9
	C14.6,30,14.4,29.8,14.4,29.5z M21.8,15.8c-0.6,1-0.2,2.3,0.9,2.8l0,0c1,0.5,2.2,0.2,2.8-0.8l2.7-4.8l0,0l2.5-4.4l0,0l3.7-6.6
	L30.7,0L27,6.6L24.5,11l2-3.5l-2,3.5L21.8,15.8z"/>
</svg>
