<?xml version="1.0" ?><svg data-name="Layer 3" id="Layer_3" fill="black" viewBox="0 0 1000 1000" xmlns="http://www.w3.org/2000/svg"><title/><path d="M598.4213,597.3581a6.567,6.567,0,0,1-4.9083-6.362V529.5476a166.6988,166.6988,0,0,0,77.44-137.5256h.6444a34.2935,34.2935,0,0,0,34.2544-34.2543V338.9113a32.15,32.15,0,0,0-19.694-29.604c4.4132-15.3157,36.4045-129.9978,7.0277-137.5-31.4833-8.04,15.4034-34.4571-65.5255-96.48s-168.8352-15.581-168.8352-15.581-62.8876-16.9906-92.1395,30.9872-88.9,44.0876-74.6362,102.4387c12.9194,52.852,27.34,104.6374,29.9435,113.9288a32.143,32.143,0,0,0-27.8442,31.81v18.8564a34.2927,34.2927,0,0,0,34.2534,34.2543h.6453a166.6979,166.6979,0,0,0,77.44,137.5251v61.449a6.567,6.567,0,0,1-4.9083,6.362C332.885,607.6968,269.93,640.7233,224.3018,690.3609c-46.1611,50.217-71.5831,114.4044-71.5831,180.7388v84.0857a1.7653,1.7653,0,0,0,1.7648,1.7653H845.516a1.7657,1.7657,0,0,0,1.7653-1.7653V871.1c0-66.3344-25.422-130.5218-71.5836-180.7388C730.07,640.7233,667.115,607.6968,598.4213,597.3581Zm72.5729-287.0168h2.7574a28.6027,28.6027,0,0,1,28.57,28.57v18.8564a30.7585,30.7585,0,0,1-30.7238,30.7237h-.6036Zm-341.9874,78.15h-.6046a30.7585,30.7585,0,0,1-30.7238-30.7237V338.9113a28.6027,28.6027,0,0,1,28.57-28.57h2.7584Zm28.3-129.4388c18.25-20.5315,11.1262-47.079,11.1262-47.079s61.7912,27.8547,126.944-26.7891c59.6416-50.022,95.1173-12.9732,96.8132,20.12s23.3564-3.3218,41.124,34.9914c17.34,37.39,1.85,76.8283,33.4935,68.9422l-32.177,39.5354A59.8285,59.8285,0,0,0,516.834,353.167c-11.4429-5.929-23.365-3.774-32.2373-.2877a59.8362,59.8362,0,0,0-117.8573-3.6883l-33.8667-41.3175C364.2227,299.1118,339.548,279.0314,357.3069,259.0526ZM631.5452,361.2477a55.4345,55.4345,0,1,1-55.435-55.434A55.4974,55.4974,0,0,1,631.5452,361.2477Zm-150.7551,0a55.4338,55.4338,0,1,1-55.434-55.434A55.4969,55.4969,0,0,1,480.79,361.2477Zm-148.2537,27.567V313.3459L365.9579,354.12a59.8315,59.8315,0,1,0,119.2362,7.1274c0-1.5195-.0758-3.0207-.1877-4.5121,8.523-3.5343,20.39-5.9507,31.4195.4588-.09,1.3411-.1527,2.69-.1527,4.0533a59.8376,59.8376,0,1,0,119.1786-7.5756L667.4636,314.34v74.4749c0,89.95-73.18,163.13-163.13,163.13h-8.6673c-6.7809-.1719-13.0867-.5579-18.9567-1.1076C395.6586,541.4135,332.5364,472.3527,332.5364,388.8147Zm69.6547,212.0215c.056-.0088.111-.0195.1651-.0331a10.0925,10.0925,0,0,0,7.6605-9.807V574.1313c16.83,18.0079,57.0354,24.8811,100.6249,15.2007,36.5636-8.12,66.2657-25.7861,79.3408-45.1036v46.7677a10.0934,10.0934,0,0,0,7.6609,9.807c.0546.0136.11.0243.1656.0331q6.1455.923,12.2253,2.0939c-.12,21.3982-11.4766,41.4138-32.0189,56.3916-20.7318,15.1165-48.45,23.4415-78.0479,23.4415s-57.32-8.325-78.0586-23.4415c-20.5441-14.9753-31.9044-34.9846-32.03-56.376Q396.0015,601.77,402.1911,600.8362Zm-15.8122,3.9064c.7288,21.8661,12.5421,42.19,33.4506,57.432,21.3374,15.5527,49.7973,24.1192,80.1379,24.1192s58.7961-8.5665,80.1277-24.12C601,646.9305,612.81,626.6019,613.5344,604.729c3.1752.6475,9.7739,2.0642,17.97,4.2141-.4635,25.2672-14.026,48.87-38.3107,66.5973-24.7823,18.0892-57.8906,28.0519-93.2267,28.0519S431.523,693.63,406.7407,675.54c-24.2877-17.7289-37.8511-41.336-38.3107-66.6061C371.0088,608.2206,377.3777,606.5439,386.3789,604.7426Zm409.7516,116.69q1.9394,2.7773,3.8091,5.5924V741.33h8.8236q1.0917,1.8964,2.1483,3.809H799.94v80.004h39.6387c.231,1.2687.4656,2.5365.6776,3.8091H799.94v80.004h43.8111v3.8091H799.94V953.42h-3.8091V912.7648H753.72V953.42h-3.809V912.7648H712.2571V953.42H708.448V912.7648H666.0371V953.42H662.228V912.7648H619.8162V953.42h-3.8091V912.7648h-40.46V953.42h-3.8091V912.7648H529.3265V953.42h-3.8091V912.7648H483.1055V953.42h-3.808V912.7648H433.02V953.42h-3.8081V912.7648H386.8V953.42h-3.8081V912.7648H340.5786V953.42h-3.8081V912.7648H296.31V953.42h-3.8081V912.7648H250.0894V953.42h-3.8081V912.7648H203.8685V953.42H200.06V912.7648H156.2483v-3.8091H200.06v-80.004H159.7432c.2121-1.2726.4466-2.54.6777-3.8091h39.64v-80.004H189.0881q1.0591-1.9117,2.1484-3.809H200.06v-14.305q1.8642-2.8166,3.8081-5.59V741.33h42.4128v-67.702q1.8911-1.6965,3.8081-3.3646V741.33h42.4124V639.7579q1.8964-1.1232,3.8081-2.2225V741.33h40.4606V618.2369c1.2676-.4927,2.5329-.99,3.8081-1.4668V741.33h42.4129V657.7419q1.8171,2.3084,3.8081,4.5466V741.33h42.4123V692.576q1.8874.8508,3.8081,1.6558V741.33h46.2775V705.9832q1.8979.2111,3.808.3861v34.96h42.4119V705.3732q1.9118-.265,3.8091-.5662V741.33h42.4119V692.12q1.9248-.8851,3.8091-1.8223V741.33h40.46V658.922q2.0092-2.4728,3.8091-5.0272V741.33H662.228V617.8509c1.2723.49,2.5447.9785,3.8091,1.4844V741.33H708.448V640.3216q1.9139,1.1428,3.8091,2.3135V741.33h37.6535V670.263q1.9215,1.6635,3.809,3.3651V741.33h42.4109Z"/><path d="M495.1116,409.5114h9.7773a12.7823,12.7823,0,0,0,12.767-12.768,1.7653,1.7653,0,1,0-3.5306,0,9.2472,9.2472,0,0,1-9.2364,9.2374h-9.7773a9.248,9.248,0,0,1-9.2374-9.2374,1.7648,1.7648,0,1,0-3.53,0A12.7822,12.7822,0,0,0,495.1116,409.5114Z"/><ellipse cx="425.3626" cy="349.8548" rx="8.1199" ry="13.1263"/><path d="M390.6578,297.6444a1.76,1.76,0,0,0,1.2989-.57,35.8629,35.8629,0,0,1,50.6751-2.1012,1.7651,1.7651,0,0,0,2.39-2.5978,39.3931,39.3931,0,0,0-55.6623,2.3086,1.7648,1.7648,0,0,0,1.2979,2.96Z"/><ellipse cx="574.6498" cy="349.8548" rx="8.1199" ry="13.1263"/><path d="M557.3794,294.7175a35.9051,35.9051,0,0,1,50.6522,2.6115,1.7649,1.7649,0,1,0,2.6212-2.3642,39.44,39.44,0,0,0-55.6375-2.8684,1.7649,1.7649,0,0,0,2.3641,2.6211Z"/><path d="M543.258,438.3627a1.7657,1.7657,0,0,0-1.7653-1.7653H458.5078a1.7653,1.7653,0,0,0-1.7648,1.7653,43.2575,43.2575,0,1,0,86.515,0Zm-82.3131,7.2652a39.6568,39.6568,0,0,1-.6334-5.5H539.69a39.6668,39.6668,0,0,1-.5782,5.1723c-3.9377,2.7056-14.1308,6.7656-39.8666,6.7656C474.5275,452.0659,464.7711,448.3214,460.9449,445.6279Z"/><rect height="80.004" width="40.4606" x="296.3099" y="745.1386"/><rect height="80.004" width="42.4129" x="340.5786" y="828.9517"/><rect height="80.004" width="42.4124" x="386.7996" y="745.1386"/><rect height="80.004" width="42.4129" x="340.5786" y="745.1386"/><rect height="80.004" width="42.4109" x="666.0371" y="828.9517"/><rect height="80.004" width="46.2774" x="433.02" y="828.9517"/><rect height="80.004" width="42.4119" x="619.8162" y="828.9517"/><rect height="80.004" width="37.6535" x="712.2571" y="828.9517"/><rect height="80.004" width="40.4596" x="575.5475" y="828.9517"/><rect height="80.004" width="42.4119" x="483.1055" y="828.9517"/><rect height="80.004" width="42.4119" x="529.3265" y="828.9517"/><rect height="80.004" width="42.4124" x="386.7996" y="828.9517"/><rect height="80.004" width="42.4109" x="753.7196" y="745.1386"/><rect height="80.004" width="40.4606" x="296.3099" y="828.9517"/><rect height="80.004" width="37.6535" x="712.2571" y="745.1386"/><rect height="80.004" width="42.4119" x="483.1055" y="745.1386"/><rect height="80.004" width="46.2774" x="433.02" y="745.1386"/><rect height="80.004" width="42.4119" x="529.3265" y="745.1386"/><rect height="80.004" width="42.4109" x="666.0371" y="745.1386"/><rect height="80.004" width="42.4119" x="619.8162" y="745.1386"/><rect height="80.004" width="42.4124" x="250.0894" y="828.9517"/><rect height="80.004" width="40.4596" x="575.5475" y="745.1386"/><rect height="80.004" width="42.4109" x="753.7196" y="828.9517"/><rect height="80.004" width="42.4124" x="250.0894" y="745.1386"/><rect height="80.004" width="42.4129" x="203.8685" y="745.1386"/><rect height="80.004" width="42.4129" x="203.8685" y="828.9517"/></svg>